<?xml version="1.0" encoding="utf-8"?>
<!-- Generator: Adobe Illustrator 25.4.1, SVG Export Plug-In . SVG Version: 6.00 Build 0)  -->
<svg version="1.1" id="LOGO_ISOTIPO_MUNI" xmlns="http://www.w3.org/2000/svg" xmlns:xlink="http://www.w3.org/1999/xlink" x="0px"
	 y="0px" viewBox="0 0 604.2 181.1" style="enable-background:new 0 0 604.2 181.1;" xml:space="preserve">
<style type="text/css">
	.st0{fill:#FFFFFF;}
	.st1{fill:none;}
</style>
<g id="Grupo">
	<g id="Capa_1">
		<path class="st0" d="M224.7,75.7h-0.1l-9.6-14v21.2h-2.9V56.7h3l9.6,14.3l9.6-14.3h3V83h-3V61.7L224.7,75.7z"/>
		<path class="st0" d="M267.4,71.7c0,1.7-0.2,3.4-0.8,5.1c-0.5,1.4-1.2,2.6-2.2,3.6s-2.2,1.7-3.5,2.2c-2.9,1-6,1-8.9,0
			c-1.3-0.5-2.5-1.2-3.5-2.2s-1.8-2.2-2.2-3.6c-0.6-1.6-0.8-3.2-0.8-4.9V56.7h3v15.1c-0.2,2.4,0.6,4.7,2.1,6.6
			c3.3,3,8.3,3.1,11.7,0.1c1.4-1.5,2.2-3.6,2.1-6.5V56.7h3L267.4,71.7z"/>
		<path class="st0" d="M295,56.7h2.9V83h-2.4l-17-21.5V83h-2.9V56.7h2.8l16.6,21V56.7z"/>
		<path class="st0" d="M309.9,56.7V83h-3V56.7H309.9z"/>
		<path class="st0" d="M339.2,80.7c-0.7,0.6-1.5,1.1-2.4,1.4c-0.9,0.4-1.8,0.7-2.8,0.9c-1.1,0.2-2.2,0.3-3.3,0.3
			c-3.5,0-7-1.4-9.4-3.9c-1.2-1.2-2.1-2.7-2.8-4.3c-1.3-3.4-1.3-7.2,0-10.6c0.6-1.6,1.6-3.1,2.8-4.3c2.5-2.6,6-4.1,9.6-4
			c1.1,0,2.2,0.1,3.2,0.3c0.9,0.2,1.8,0.5,2.7,0.8c0.8,0.3,1.6,0.8,2.3,1.3c0.7,0.5,1.4,1.1,2,1.7l-2,2.2c-1.1-1-2.3-1.9-3.6-2.6
			c-4-2-8.8-1.1-11.9,2.1c-0.9,1-1.7,2.2-2.1,3.4c-0.5,1.4-0.8,2.8-0.8,4.3s0.3,2.9,0.8,4.3c0.5,1.3,1.2,2.5,2.1,3.4
			c0.9,1,2,1.8,3.2,2.3c1.3,0.6,2.6,0.8,4,0.8c1.6,0,3.2-0.3,4.7-1c1.4-0.7,2.7-1.7,3.8-2.8l2,1.9C340.7,79.5,340,80.1,339.2,80.7z"
			/>
		<path class="st0" d="M351.1,56.7V83h-3V56.7H351.1z"/>
		<path class="st0" d="M378.9,68.8c-0.5,1.1-1.3,2-2.2,2.7c-1,0.7-2.1,1.3-3.3,1.6c-1.3,0.4-2.6,0.6-4,0.5H363v9.3h-3V56.7h9.8
			c1.4,0,2.7,0.2,4,0.6c1.2,0.3,2.2,0.9,3.2,1.7c0.9,0.7,1.5,1.6,2,2.6c0.5,1.1,0.7,2.3,0.7,3.5C379.7,66.3,379.5,67.6,378.9,68.8z
			 M374.8,60.9c-1.5-1-3.3-1.5-5.1-1.5H363V71h6.5c1,0,2-0.1,3-0.4c0.8-0.2,1.6-0.6,2.3-1.2c0.6-0.5,1.1-1.1,1.5-1.8
			c0.3-0.7,0.5-1.6,0.5-2.4C376.9,63.5,376.2,61.9,374.8,60.9L374.8,60.9z"/>
		<path class="st0" d="M408.2,82.9H405l-3-6.9h-14.3l-3.1,6.9h-3.1l12-26.5h2.8L408.2,82.9z M394.8,60l-6,13.4h12L394.8,60z"/>
		<path class="st0" d="M414.7,56.7h3v23.5h14.8v2.7h-17.8V56.7z"/>
		<path class="st0" d="M442.4,56.7V83h-3V56.7H442.4z"/>
		<path class="st0" d="M473.5,75c-0.6,1.6-1.6,3-2.9,4.2s-2.8,2.2-4.4,2.8c-1.8,0.7-3.7,1-5.6,1h-9.1V56.7h9.1c1.9,0,3.8,0.3,5.6,1
			c1.6,0.6,3.2,1.6,4.4,2.8c1.2,1.2,2.2,2.6,2.9,4.2C474.8,67.9,474.8,71.7,473.5,75L473.5,75z M470.7,65.8
			c-0.5-1.2-1.2-2.4-2.2-3.3c-1-1-2.2-1.7-3.5-2.2c-1.4-0.6-3-0.8-4.5-0.8h-6.1v20.8h6.1c1.5,0,3.1-0.2,4.5-0.8c2.6-1,4.6-3,5.6-5.5
			c0.5-1.3,0.8-2.7,0.8-4.1C471.4,68.4,471.2,67.1,470.7,65.8L470.7,65.8z"/>
		<path class="st0" d="M504.8,82.9h-3.2l-3.1-6.9h-14.3l-3.1,6.9h-3l12-26.5h2.8L504.8,82.9z M491.4,60l-6,13.4h12L491.4,60z"/>
		<path class="st0" d="M533.3,75c-0.7,1.6-1.6,3-2.9,4.2c-1.3,1.2-2.8,2.1-4.5,2.8c-1.8,0.7-3.7,1-5.7,1h-9.1V56.7h9.1
			c1.9,0,3.8,0.3,5.7,1c1.6,0.6,3.1,1.6,4.4,2.8c1.2,1.2,2.2,2.6,2.9,4.2s1,3.4,1,5.2C534.3,71.6,534,73.3,533.3,75z M530.5,65.8
			c-0.5-1.2-1.2-2.4-2.2-3.3c-1-1-2.2-1.7-3.4-2.2c-1.4-0.6-3-0.8-4.5-0.8h-6.2v20.8h6.2c1.5,0,3.1-0.2,4.5-0.8
			c2.6-1,4.6-2.9,5.6-5.5c0.5-1.3,0.8-2.7,0.8-4.1C531.3,68.4,531,67.1,530.5,65.8L530.5,65.8z"/>
		<path class="st0" d="M576.5,75c-0.6,1.6-1.6,3-2.9,4.2c-1.3,1.2-2.8,2.2-4.4,2.8c-1.8,0.7-3.7,1-5.7,1h-9.1V56.7h9.1
			c1.9,0,3.8,0.3,5.7,1c1.6,0.6,3.2,1.6,4.4,2.8s2.2,2.6,2.9,4.2C577.8,67.9,577.8,71.7,576.5,75z M573.7,65.8
			c-0.5-1.2-1.2-2.4-2.2-3.3c-1-1-2.1-1.7-3.4-2.2c-1.4-0.6-3-0.8-4.5-0.8h-6.2v20.8h6.2c1.5,0,3.1-0.2,4.5-0.8c2.6-1,4.6-3,5.6-5.5
			c0.5-1.3,0.8-2.7,0.8-4.1C574.5,68.4,574.2,67.1,573.7,65.8L573.7,65.8z"/>
		<path class="st0" d="M604.1,59.4H588v9h14.3V71H588v9.2h16.2v2.7H585V56.7h19L604.1,59.4L604.1,59.4z"/>
		<path class="st0" d="M235,115c-0.6,1.3-1.5,2.4-2.6,3.3c-1.2,0.9-2.5,1.6-3.9,2c-1.6,0.5-3.2,0.7-4.8,0.7h-5v9.1H212V99.8h12.4
			c1.7,0,3.3,0.2,4.9,0.8c1.3,0.5,2.6,1.2,3.6,2.1s1.8,2.1,2.3,3.3c0.5,1.4,0.8,2.8,0.8,4.3v0.1C236,112,235.7,113.5,235,115z
			 M229.2,110.4c0.1-1.3-0.5-2.6-1.4-3.4c-1.2-0.8-2.6-1.3-4-1.2h-5.1v9.2h5.3c1.4,0.1,2.8-0.4,3.9-1.3
			C228.7,112.9,229.2,111.7,229.2,110.4L229.2,110.4z"/>
		<path class="st0" d="M267.3,122.9c-0.6,1.6-1.5,3.1-2.7,4.3s-2.6,2-4.2,2.5c-1.8,0.6-3.6,0.9-5.5,0.8c-4.1,0-7.3-1.1-9.6-3.4
			c-2.3-2.2-3.5-5.6-3.5-10.1V99.8h6.6v17.1c-0.2,2,0.5,4,1.7,5.6c1.3,1.3,3,2,4.8,1.9c1.8,0.1,3.5-0.6,4.8-1.8
			c1.2-1.2,1.7-3,1.7-5.4V99.8h6.7v17.1C268.3,118.9,268,121,267.3,122.9z"/>
		<path class="st0" d="M276.5,130.1V99.8h22.8v5.9h-16.2v6.1h14.3v5.9h-14.3v6.4h16.4v5.9h-23L276.5,130.1L276.5,130.1z"/>
		<path class="st0" d="M325.3,130.1l-6.5-9.7h-5.2v9.7h-6.7V99.8h13.8c3.6,0,6.4,0.9,8.4,2.6c2.1,1.9,3.2,4.6,3,7.3v0.1
			c0.1,2.1-0.5,4.3-1.8,6c-1.2,1.6-2.8,2.7-4.7,3.4L333,130L325.3,130.1z M325.5,110.1c0.1-1.2-0.4-2.5-1.4-3.2
			c-1.1-0.8-2.5-1.2-3.9-1.1h-6.6v8.7h6.7c1.4,0.1,2.7-0.3,3.8-1.2C325,112.5,325.5,111.4,325.5,110.1L325.5,110.1z"/>
		<path class="st0" d="M353.4,105.9V130h-6.7v-24.1h-9.2v-6.1h25.1v6.1H353.4z"/>
		<path class="st0" d="M398.8,121c-1.6,3.8-4.6,6.8-8.5,8.4c-2.1,0.8-4.3,1.2-6.5,1.2s-4.4-0.4-6.4-1.2c-1.9-0.8-3.6-1.9-5.1-3.3
			c-1.4-1.4-2.6-3.1-3.3-5c-0.8-1.9-1.2-4-1.2-6.1v-0.1c0-2.1,0.4-4.2,1.2-6.1c1.6-3.8,4.6-6.8,8.5-8.3c2.1-0.8,4.3-1.2,6.5-1.2
			s4.4,0.4,6.4,1.2c1.9,0.8,3.6,1.9,5.1,3.3c1.4,1.4,2.6,3.1,3.3,4.9c0.8,1.9,1.2,4,1.2,6.1v0.1C400,117,399.6,119.1,398.8,121z
			 M393,114.9c0-1.3-0.2-2.5-0.7-3.7c-0.9-2.3-2.6-4.1-4.8-5.1c-2.4-1-5-1-7.4,0c-1.1,0.5-2.1,1.1-2.9,2s-1.4,1.9-1.9,3
			c-0.5,1.2-0.7,2.4-0.7,3.7v0.1c0,1.3,0.2,2.5,0.7,3.7c0.9,2.3,2.6,4.1,4.8,5.1c1.2,0.5,2.4,0.8,3.7,0.8c1.3,0,2.5-0.2,3.7-0.7
			c1.1-0.4,2.1-1.1,2.9-2s1.4-1.9,1.9-3C392.8,117.5,393,116.3,393,114.9L393,114.9z"/>
		<path class="st0" d="M422.1,130.1V99.8h6.7v30.3H422.1z"/>
		<path class="st0" d="M459.8,129.2c-2.3,1-4.8,1.5-7.4,1.4c-2.2,0-4.4-0.4-6.5-1.2c-3.8-1.5-6.8-4.4-8.3-8.2
			c-0.8-2-1.2-4.1-1.2-6.2v-0.1c-0.1-6.3,3.7-12,9.5-14.4c2-0.8,4.2-1.3,6.4-1.2c1.2,0,2.5,0.1,3.7,0.3c1.1,0.2,2.1,0.4,3.1,0.8
			c0.9,0.3,1.8,0.8,2.7,1.3c0.8,0.5,1.7,1.1,2.4,1.8l-4.2,5.1c-0.5-0.5-1.1-0.9-1.7-1.3s-1.2-0.7-1.8-1c-0.6-0.3-1.3-0.5-2-0.6
			c-0.8-0.1-1.6-0.2-2.4-0.2c-1.2,0-2.3,0.3-3.4,0.8c-1,0.5-2,1.2-2.8,2c-0.8,0.9-1.4,1.9-1.9,3c-0.5,1.2-0.7,2.4-0.7,3.7v0.2
			c0,1.3,0.2,2.6,0.7,3.8c0.4,1.1,1.1,2.2,1.9,3.1s1.8,1.5,2.9,2c1.2,0.5,2.4,0.7,3.7,0.7c2.2,0.1,4.4-0.6,6.3-1.8v-4.4h-6.7v-5.8
			h13.1V126C463.7,127.2,461.8,128.3,459.8,129.2z"/>
		<path class="st0" d="M498.2,122.9c-0.6,1.6-1.5,3.1-2.7,4.3s-2.6,2-4.2,2.5c-1.8,0.6-3.6,0.9-5.5,0.8c-4.1,0-7.3-1.1-9.6-3.4
			c-2.3-2.2-3.5-5.6-3.5-10.1V99.8h6.7v17.1c0,2.5,0.6,4.3,1.7,5.6c1.2,1.3,3,2,4.8,1.9c1.8,0.1,3.5-0.6,4.8-1.8
			c1.3-1.5,1.9-3.5,1.7-5.4V99.8h6.6v17.1C499.1,118.9,498.8,121,498.2,122.9z"/>
		<path class="st0" d="M529.9,130.1l-2.8-6.8h-12.8l-2.8,6.8h-6.8l13-30.5h6.1l13,30.5H529.9z M520.7,107.6l-4,9.8h8L520.7,107.6z"
			/>
		<path class="st0" d="M542.1,130.1V125l16.7-19.4h-16.1v-5.8h24.7v5.1l-16.6,19.4h16.6v5.8L542.1,130.1L542.1,130.1z"/>
		<path class="st0" d="M600,122.9c-0.6,1.6-1.5,3.1-2.7,4.3s-2.6,2-4.2,2.5c-1.8,0.6-3.6,0.9-5.5,0.8c-4.1,0-7.3-1.1-9.6-3.4
			c-2.3-2.2-3.5-5.6-3.5-10.1V99.8h6.7v17.1c0,2.5,0.6,4.3,1.7,5.6c1.2,1.3,3,2,4.8,1.9c1.8,0.1,3.5-0.6,4.8-1.8
			c1.3-1.5,1.9-3.5,1.7-5.4V99.8h6.7v17.1C601,118.9,600.7,121,600,122.9z M584.8,97.6l4.9-7.6l5.7,2.5l-5.5,5.2L584.8,97.6z"/>
		<path class="st1" d="M164.1,31.7c-0.2-1.6-1.9-2.9-3.3-3.5c-0.4-0.2-0.7-0.3-1.1-0.4c-0.3-0.1-0.7-0.2-1.1-0.2h-0.4L22.6,27.1
			c-0.1,0.2-0.3,0.4-0.5,0.5c-0.1,0.1-0.2,0.1-0.4,0.2l0,0c-1,0.2-1.9,0.8-2.4,1.7c-0.2,1.6-0.2,3.2,0,4.8c0.3,1.7,0.9,3.3,1.8,4.7
			l9.7-1.3c0.6-0.1,1.3,0.4,1.4,1l0,0l104.2-0.2c0.1,0,0.2,0,0.3,0c0.6,0.1,1.1,0.8,0.9,1.4c-0.4,1.5-0.4,3.1,0,4.6
			c0.2,0.6,0.5,1.2,0.9,1.8l3.5-8.1c0.2-0.4,0.6-0.7,1.1-0.7c4.2-0.1,8.3,1.4,11.5,4.1c0.1,0.1,0.2,0.2,0.3,0.3c0.6,1,1,2.1,0.9,3.3
			c0.6-0.2,1.2-0.5,1.7-0.9c0.6-0.7,0.9-1.5,0.9-2.4c0-0.1,0-0.2,0-0.3c-0.8-1.4-1.9-2.7-3.1-3.7c-1.2-1-2.5-1.7-3.9-2.3
			c-0.6-0.2-0.9-0.9-0.6-1.5l0,0l0,0c0.3-0.6,0.9-0.9,1.6-0.7c1.6,0.6,3.1,1.5,4.5,2.6c1.3,1.1,2.4,2.4,3.3,3.8
			c0.2,0,0.3-0.1,0.5-0.2c0.3-0.2,0.6-0.5,0.7-0.9c0.2-0.4,0.3-0.8,0.3-1.2s-0.1-0.8-0.3-1.2l-0.1-0.1c-0.8-1.3-1.8-2.5-3.1-3.3
			c-1.1-0.7-2.3-1.3-3.6-1.5c-0.6-0.1-1-0.8-0.9-1.4s0.7-1.1,1.4-0.9l0,0c1.6,0.3,3.2,0.9,4.5,1.9c1.3,0.9,2.5,2.1,3.4,3.5
			c0.3,0,0.7-0.1,0.9-0.4C164.2,33.2,164.2,32.4,164.1,31.7L164.1,31.7z"/>
		<path class="st1" d="M153.1,43.2c-1.2-1-2.6-1.9-4.1-2.5c-1.6-0.6-3.3-0.9-4.9-1l-3.9,9c-0.2,0.5-0.8,0.8-1.3,0.7l-50,85.2
			c0,0.1-0.1,0.2-0.2,0.3c-0.4,0.5-1.2,0.5-1.7,0.1l0,0c-1.1-1.1-2.4-1.9-3.9-2.4c-0.7-0.2-1.3-0.2-2-0.1l5.1,7.2
			c0.3,0.4,0.3,0.9,0,1.3c-2.1,3.6-5.4,6.4-9.4,7.7c-0.1,0.1-0.3,0.1-0.4,0.1c-1.2,0-2.3-0.3-3.3-1c-0.2,0.6-0.2,1.3,0,1.9
			c0.2,0.9,0.8,1.6,1.6,2l0.3,0.1c1.6,0,3.2-0.2,4.8-0.7c1.4-0.5,2.7-1.2,3.9-2.1c0.5-0.4,1.2-0.3,1.6,0.2l0,0c0,0,0,0,0,0.1
			c0.4,0.5,0.3,1.3-0.2,1.7c-1.4,1.1-2.9,1.9-4.6,2.5c-1.6,0.5-3.3,0.8-5,0.8c0,0.2-0.1,0.4-0.1,0.5c0,0.4,0.2,0.7,0.4,1.1
			c0.2,0.4,0.5,0.6,0.9,0.9c0.3,0.2,0.7,0.3,1.2,0.4H78c1.5,0,3.1-0.3,4.5-0.9c1.2-0.6,2.3-1.3,3.2-2.3c0.5-0.5,1.2-0.5,1.7-0.1
			s0.5,1.2,0.1,1.7c-1.1,1.2-2.5,2.2-4,2.9s-3.1,1-4.8,1.1c-0.2,0.3-0.2,0.6-0.1,0.9c0.5,0.6,1.1,1.1,1.8,1.3l0,0
			c1.5,0.7,3.5-0.1,4.7-1c0.3-0.2,0.6-0.5,0.9-0.7s0.5-0.5,0.7-0.8c0.1-0.1,0.2-0.2,0.2-0.3l67-111.5c-0.2-0.2-0.3-0.5-0.3-0.8
			c0-0.1,0-0.3,0.1-0.4C153.7,45.2,153.6,44.1,153.1,43.2z"/>
		<path class="st1" d="M73.4,145L73.4,145L73.4,145c0.7,0.9,1.6,1.4,2.6,1.4c3.2-1.1,5.9-3.2,7.6-6l-0.1-0.2l-5.5-7.8
			c-0.2-0.3-0.3-0.7-0.2-1.1L24,46.2c-0.1-0.1-0.1-0.2-0.1-0.3c-0.2-0.6,0.1-1.3,0.7-1.5l0,0l0,0c1.5-0.5,2.8-1.3,3.9-2.4
			c0.4-0.5,0.8-1.1,1-1.7l-8.8,1.2c-0.5,0.1-0.9-0.2-1.2-0.6c-2.3-3.5-3.2-7.7-2.5-11.9c0-0.2,0.1-0.3,0.1-0.4
			c0.5-1.1,1.3-2,2.4-2.6c-0.5-0.4-1-0.8-1.7-0.9c-0.9-0.2-1.8,0-2.5,0.5L15,25.8c-0.8,1.4-1.3,3-1.5,4.6c-0.2,1.5-0.2,3,0.1,4.5
			c0.1,0.6-0.3,1.2-0.9,1.3h-0.1c-0.7,0.1-1.3-0.3-1.4-1c-0.3-1.7-0.3-3.5-0.1-5.2c0.3-1.7,0.8-3.3,1.5-4.8
			c-0.1-0.1-0.3-0.2-0.4-0.3c-0.3-0.2-0.7-0.2-1.1-0.2c-0.4,0-0.8,0.2-1.2,0.4C9.5,25.3,9.2,25.6,9,26l0,0l0,0l0,0
			c-0.7,1.4-1.1,2.8-1.3,4.4c-0.1,1.3,0.2,2.6,0.6,3.9c0.2,0.6-0.2,1.3-0.8,1.5C7,36,6.4,35.7,6.1,35.1c-0.6-1.5-0.8-3.2-0.8-4.8
			c0.1-1.6,0.5-3.2,1.2-4.7c-0.2-0.3-0.5-0.5-0.8-0.5c-0.7,0.1-1.4,0.5-2,1l0,0c-1.3,1-1.5,3.1-1.3,4.6c0.1,0.7,0.3,1.5,0.6,2.1
			c0.1,0.1,0.1,0.2,0.2,0.3l68.6,111.7c0.4-0.2,0.9-0.2,1.2,0C73.2,144.9,73.3,144.9,73.4,145z"/>
		<path class="st0" d="M166.5,31.5L166.5,31.5c-0.3-2.5-2.5-4.5-4.7-5.5c-0.5-0.2-1-0.4-1.4-0.5c-0.5-0.1-1-0.2-1.5-0.3h-0.6
			L21.5,24.7c-0.8-0.9-1.9-1.6-3.2-1.9c-1.4-0.3-2.9,0-4.1,0.7c-0.3-0.3-0.7-0.5-1.1-0.7c-0.7-0.3-1.5-0.5-2.3-0.4s-1.5,0.3-2.2,0.7
			c-0.2,0.1-0.5,0.3-0.7,0.5c-0.6-0.6-1.4-0.9-2.2-0.9c-1.3,0.1-2.5,0.6-3.5,1.5l0,0c-2,1.5-2.5,4.5-2.2,6.8c0.1,0.5,0.2,1,0.3,1.5
			C0.6,33,0.8,33.5,1,34c0.1,0.2,0.2,0.3,0.3,0.5l69.4,112.9c-0.3,1-0.3,2,0,3c0.4,1.4,1.3,2.6,2.5,3.3c-0.1,0.4-0.2,0.9-0.2,1.3
			c0,0.8,0.3,1.6,0.7,2.3c0.4,0.7,1,1.2,1.6,1.6c0.2,0.2,0.5,0.3,0.7,0.4c-0.3,0.8-0.2,1.6,0.2,2.4c0.7,1.1,1.7,1.9,2.9,2.4l0,0
			c2.3,1.1,5.1,0.2,7.1-1.2c0.4-0.3,0.8-0.6,1.2-1c0.4-0.3,0.7-0.7,1-1.1c0.1-0.1,0.2-0.3,0.3-0.5l67.5-112.7
			c1.2-0.3,2.2-0.8,3.1-1.7c1-1.1,1.5-2.4,1.5-3.9c0.4-0.1,0.8-0.3,1.2-0.5c0.7-0.4,1.2-1.1,1.6-1.8c0.3-0.7,0.5-1.5,0.5-2.2
			c0-0.3,0-0.5-0.1-0.8c0.8-0.2,1.6-0.7,2-1.4C166.6,34,166.7,32.7,166.5,31.5z M71.9,144.8L3.3,33.2c-0.1-0.1-0.1-0.2-0.2-0.3
			c-0.3-0.7-0.5-1.4-0.6-2.1c-0.2-1.5,0-3.6,1.3-4.6l0,0c0.6-0.5,1.3-0.9,2-1c0.3,0,0.6,0.2,0.8,0.5c-0.7,1.5-1.1,3.1-1.2,4.7
			c-0.1,1.6,0.2,3.3,0.8,4.8c0.3,0.6,1,0.9,1.6,0.6c0.6-0.2,0.8-0.9,0.7-1.4c-0.5-1.2-0.7-2.6-0.6-3.9c0.1-1.5,0.6-3,1.3-4.4l0,0V26
			l0,0c0.2-0.4,0.5-0.7,0.8-0.9c0.4-0.2,0.8-0.3,1.2-0.4c0.4,0,0.8,0,1.1,0.2c0.2,0.1,0.3,0.2,0.4,0.3c-0.7,1.5-1.2,3.1-1.5,4.8
			c-0.3,1.7-0.2,3.5,0.1,5.2c0.1,0.7,0.7,1.1,1.4,1c0.6-0.1,1.1-0.6,1-1.3l0,0c0,0,0,0,0-0.1c-0.3-1.5-0.3-3-0.1-4.5
			c0.3-1.6,0.8-3.1,1.5-4.6l0.3-0.2c0.7-0.5,1.6-0.7,2.5-0.5c0.6,0.2,1.2,0.5,1.7,0.9c-1,0.6-1.9,1.4-2.4,2.5C17,28.7,17,28.8,17,29
			c-0.7,4.1,0.2,8.4,2.5,11.9c0.3,0.4,0.7,0.6,1.2,0.6l8.8-1.2c-0.2,0.6-0.6,1.2-1,1.7c-1.1,1.1-2.4,1.9-3.9,2.4
			c-0.6,0.2-0.9,0.9-0.7,1.5l0,0c0,0.1,0.1,0.2,0.1,0.3l54,85.2c-0.1,0.4-0.1,0.8,0.2,1.1l5.5,7.8l0.1,0.2c-1.8,2.8-4.5,4.9-7.6,6
			c-1,0-2-0.5-2.6-1.4l-0.2-0.2l0,0c-0.1-0.1-0.2-0.2-0.3-0.2C72.7,144.6,72.3,144.6,71.9,144.8z M64.1,44.5c0-0.6,0.4-1,1-1
			s1,0.4,1,1V60c1,0.2,2,0.5,2.9,1l5.7-14.8c0.1-0.6,0.7-0.9,1.2-0.8c0.6,0.1,0.9,0.7,0.8,1.2c0,0.1-0.1,0.2-0.1,0.2L70.7,62
			c0.8,0.6,1.6,1.4,2.2,2.2l11.5-11.7c0.3-0.4,0.9-0.5,1.4-0.2c0.4,0.3,0.5,0.9,0.2,1.4c-0.1,0.1-0.1,0.2-0.2,0.2L74,66
			c1,2,1.4,4.2,1,6.4c-0.5-0.1-1.1-0.2-1.6-0.2h-2v-0.1c0-3.7-3-6.7-6.7-6.7H54.4c0.2-0.3,0.4-0.7,0.6-1l-10.7-11
			C44,53,44,52.3,44.5,52c0.4-0.3,0.9-0.3,1.2,0l10.6,10.8c0.9-0.9,1.9-1.6,3-2.1l-5.4-14c-0.1-0.5,0.2-1.1,0.7-1.2
			c0.4-0.1,0.9,0.1,1.1,0.5l5.4,14c0.9-0.2,1.9-0.3,2.8-0.3h0.2V44.5z M94.1,72.4c0.6,0,1,0.4,1,1s-0.4,1-1,1H78.3
			c-0.8-1-2-1.7-3.2-2H94.1z M53.6,74.3c0,0.8-0.4,1.7-1,2.2c2.6,1.8,3.3,5.3,1.6,8c3-1.3,6.5,0,7.8,3c0.7,1.6,0.7,3.5-0.1,5.1
			c0.6,0.6,1,1.4,1,2.2V95h0.4c1.5,0,2.8,1.1,3,2.5c0.3,0,0.6-0.1,0.9-0.1c2.2,0,4.2,1.2,5.2,3.1c1.5,0.7,2.2,2.4,1.5,4
			c-0.3,0.7-0.8,1.2-1.5,1.5c-0.3,0.5-0.6,1-1,1.4c1.4,1,1.8,2.9,0.8,4.3c-0.1,0.1-0.1,0.2-0.2,0.2c0.5,0.4,0.8,0.8,1,1.4
			c1-0.6,2.1-1,3.3-1c3.3,0,5.9,2.7,5.9,5.9v0.3h0.1c3.3,0,5.9,2.6,5.9,5.9c0,0.5-0.1,0.9-0.2,1.4c0.9,0.2,1.6,0.6,2.3,1.2l-2.9,5
			c-1.1-0.9-2.4-1.5-3.8-1.9c-1.1-0.3-2.2-0.3-3.3-0.1l-40-62.8c1.1-1.1,2.6-1.7,4.1-1.7H45c0.8-1.5,2.6-2,4.1-1.2
			c0.9,0.5,1.5,1.4,1.6,2.5c1.4,0.1,2.4,1.2,2.3,2.6c0,0.9-0.6,1.7-1.3,2.1C52.8,72,53.6,73.1,53.6,74.3z M58.5,42.8
			c-0.2,0.7-0.5,1.3-0.9,1.9c-0.7,0.7-0.1,0.9-1.5,1.2c0-0.1,0-0.2,0-0.3c0.2-0.5-0.2-0.5-0.6-0.6c-0.7-0.3-1.5-0.6-2.2-1
			c-0.3-0.3-0.7-0.4-1.2-0.5c0.6-0.2,1.2-0.3,1.8-0.2c0.6,0.2,1.2,0.4,1.7,0.7c0.3,0.2,0.2,0.1,0.5,0c0.1-0.1,0.2-0.1,0.3-0.1
			c0.3,0,0.2,0,0.3-0.3c0.2-0.5,0.4-0.9,0.7-1.3c0.4-0.5,1-0.9,1.6-1C59,41.9,58.7,42.3,58.5,42.8z M52.4,44.7
			c-0.6,0.2-2.5,3.5-3.8,5.2c-0.3,0.3-0.4,0.6-0.5,1c-0.3,1,0,0.5-1,0.8c-0.5,0.1-1,0.2-1.3-0.2l0.5-0.7c0.3-0.5,0.2-0.7-0.8-1.1
			C43.9,49.1,43,48,41.7,48c0.9-0.9,3.7-0.3,5.2,0.5c0.3,0.1,0.4,0.4,0.6,0.1c0.2-0.2,0.4-0.3,0.7-0.3s0.2,0,0.3-0.2
			C49.2,46.4,50.7,45.2,52.4,44.7z M47.3,63.3c-0.9,0.1-1.7,0.5-2.3,1.1l-6-3.1c-0.5-0.2-0.8-0.7-0.7-1.2s0.7-0.8,1.2-0.7
			c0,0,0,0,0.1,0s0.2,0.1,0.2,0.1L47.3,63.3z M38.5,44.8c0,0.9-0.2,1.9-0.6,2.7c-0.8,1.1,0.1,1.2-1.6,1.9c0-0.1,0-0.2,0-0.3
			c0.1-0.6-0.4-0.5-0.9-0.6c-1.1-0.2-2.1-0.4-3.1-0.8c-0.5-0.3-1.1-0.4-1.6-0.3c0.7-0.4,1.5-0.7,2.3-0.7c0.8,0.1,1.6,0.2,2.4,0.4
			c0.5,0.1,0.3,0.1,0.7-0.1c0.1-0.1,0.3-0.2,0.4-0.2c0.4,0,0.3-0.1,0.4-0.5c0.1-0.6,0.3-1.3,0.6-1.8c0.4-0.8,1-1.3,1.8-1.7
			C38.9,43.4,38.6,44.1,38.5,44.8z M88.9,125.4c0-0.3,0-0.6,0.1-0.8c0-3.5-2.6-6.3-6.1-6.7c-0.1-2.1-1.3-4.1-3.1-5.3l-0.5-32.2
			l-0.5,31.8c-1.8-0.8-3.8-0.7-5.6,0.1c-0.1-0.1-0.2-0.2-0.3-0.4c0.9-1.5,0.7-3.4-0.5-4.6c0.2-0.2,0.3-0.5,0.4-0.7
			c1.8-1,2.5-3.2,1.5-5.1c-0.4-0.7-0.9-1.2-1.6-1.6c-0.5-0.8-1.1-1.5-1.9-2.1L70.6,73l-0.4,24.3c-0.9-0.5-2-0.7-3-0.7h-0.3
			c-0.5-1.4-1.7-2.3-3.2-2.5c-0.1-0.6-0.4-1.2-0.8-1.7c0.3-0.8,0.5-1.6,0.5-2.5c0-3.7-3-6.7-6.7-6.7l0,0l0,0c-0.3,0-0.7,0-1,0.1
			c0.8-2.5,0-5.2-1.9-6.9c1.1-1.6,0.8-3.7-0.6-4.9c1.2-1.4,1-3.4-0.3-4.6l0,0c-0.4-0.3-0.9-0.6-1.4-0.7v-0.1h13.2c3.3,0,6,2.7,6,6
			V73h2.8c3.3,0,6,2.7,6,6v1.5h11.8c1.3,0,2.5,0.4,3.5,1.1c0.9-2.3,3.1-3.8,5.5-3.8h6.3c0.1-7.1,0-14,0.4-20.6
			c-1.1,0.8-4.4,6.2-4.6,7.9l-0.8-0.2l-0.2,1.3l-0.5-0.3l-0.7,2.2l-0.4-0.2l-1,2.3l-0.1,0.1v-1.6l-0.4,0.6l0.1-2.6L99,65l-0.5-0.1
			c1-1.5,0.2-1.7,2.3-3.3l-0.5-0.3c0.4-1.8,2.5-3.5,3.6-5.1l-0.3-0.8l-0.2,0.8l-5.2,3.7L98,60.5h-0.8l-0.5,1.3l-1-0.3V62l-0.3-0.5
			L94.7,62v-0.5L94.3,62c0.1-1.5,0.7-1.3,0.7-2.1v-0.3c0-1.2,0.5-1.3,1-2h-0.6c0.8-1.2,1.8-2.3,2.8-3.4c0.6-0.5,1.2-0.9,1.8-1.2
			c0.9-0.4,1.5-0.2,1.8-1l2.6-0.3c-0.3-0.3,0-0.5-0.8-0.5c-0.6,0-0.6,0.2-1,0.5v-0.5l-0.8,0.3c-0.6-0.4-1.3-0.6-2.1-0.6
			c-2.3,0-3.4,0.9-5.1,1.3c0.2-2.5,1.8-3.8,4.3-3.8h0.8l3.1,0.2l3.6,0.8c-0.3-0.5-0.3-1.2-1-1.2h-1l0.1-0.8h-0.9l-1.4-1.7l1.9-0.1
			c0.9-0.1,1.7,0.4,2,1.3c2,0.2,2.7,1.7,2.7,3.8c0.5-0.6,0.4-0.7,0.4-1.7s0.7-2.4,1.6-2l1.1-1.5l0.4-0.1c0.9,0,0.9-0.3,1.8-0.5
			l-0.6,1.5H113l0.3,0.8l-1.8,0.8l-0.5,0.5l0.9-0.2l-0.4,0.5l0.5,0.3l-1,1c1.8,0,2.8-1.4,4.8-1.4h1l1.3,0.1l2.5,0.8l-0.2,0.4h1
			l-0.8,0.3v0.5l1.8,0.3v0.5H122l2.2,1.9l-1.6-0.7l0.8,1.1h-1.1c0,0.7-1.5-0.1-2.6-0.2l-0.5,0.2l-0.8-0.6c-0.6,1.7,0-0.8-0.5,0.8
			c-0.5-0.3-0.4-0.5-1-0.5c-0.7-0.1-1.4-0.3-2-0.5c0.9,1.3,3.2,1.7,2.8,2.6c1.2,1,4.5,2.8,3.8,4.3l0.8,0.3c0.1,1.8,1,1.8,1.8,3.3
			l-0.8-0.2v0.5c-0.8-0.6-0.4-1-1.3-1c-1.3-0.9-2.3-0.3-2.8-1.5c-1.5-0.1-1.1-0.8-2-1.5v0.5c-0.9-0.6-1.5-1.6-2.9-2.5
			c-0.9-0.5-2.5-1.8-3.5-1.9c0.5,2.2,2.6,5,2.6,8.4c0,1-0.2,0.5-0.3,1.6l-0.6,1.7l-0.6-2c0-0.9-0.5-0.4-0.5-1.3v-0.8
			c0-0.9-0.5-0.4-0.5-1.3v-0.9l-0.5,0.3V60l-0.5,0.3l-0.1-2.3l-0.1,0.8H109l-0.3-2.8c-0.6,3.5-0.6,12.9-0.6,21.9h2.8
			c-0.6,1.3-0.4,2.7,0.4,3.8c-1.4,1.3-2.1,3.2-2,5.1c0,0.7,0.2,1.3,0.4,1.9c-0.3,0-0.7,0-1,0c-0.2,0-0.4,0-0.6,0
			c-0.3,0-0.6,0.1-0.9,0.2h-0.1l-0.4,0.1l0,0l-0.4,0.2c-2.5,1.1-4.1,3.7-4,6.4c0,0.9,0.2,1.7,0.6,2.5c-0.4,0.5-0.6,1.1-0.7,1.7
			c-1.4,0.2-2.6,1.2-3.1,2.6h-0.3c-1.2,0.1-2.4,0.5-3.5,1.1v-2.2l-0.5-19.7l-0.5,19.7l-0.1,3.1c-0.4,0.5-0.8,1-1.1,1.5
			c-1.8,1-2.4,3.3-1.4,5.1l0,0c0.4,0.7,0.9,1.2,1.6,1.5c0.1,0.2,0.3,0.5,0.5,0.7c-0.7,0.7-1,1.7-1,2.7c0,0.2,0,0.4,0.1,0.6
			c-0.4,0.7-0.5,1.5-0.5,2.3c0,1,0.3,2,0.9,2.9l0.2,0.3l-2.1,3.6l-0.6,1C90.2,126,89.6,125.7,88.9,125.4z M93.1,118.8
			c0-0.8,0.2-1.5,0.6-2.2c-0.1-0.2-0.1-0.5-0.1-0.8c0-1,0.4-2,1.3-2.6c-0.4-0.4-0.7-0.9-1-1.3c-1.5-0.6-2.3-2.4-1.6-3.9l0,0
			c0.3-0.7,0.8-1.2,1.4-1.6c1-2,2.9-3.3,5.1-3.3c0.3,0,0.6,0,0.9,0c0.2-1.5,1.4-2.6,2.8-2.7h0.4v-0.1c0-0.9,0.3-1.7,0.9-2.3
			c-1.6-2.9-0.6-6.5,2.3-8.1c0.8-0.4,1.7-0.7,2.6-0.7c0.8,0,1.7,0.1,2.4,0.4c-0.6-0.9-1-2-1-3.1c-0.1-1.9,0.8-3.8,2.3-5
			c-1.3-1.1-1.4-3-0.4-4.2l0,0c0.3-0.3,0.6-0.6,1-0.8c-1.2-0.6-1.8-2-1.2-3.3c0.4-0.8,1.2-1.4,2.1-1.4c0-1.7,1.4-3,3-3
			c1,0,2,0.6,2.5,1.5c0.2,0,0.4,0,0.6-0.1c1.1,0,2.1,0.2,3.1,0.7l-10.3,17.6l-19,32.6l0,0C93.4,120.5,93.1,119.6,93.1,118.8z
			 M153.5,47.3L86.7,159c-0.1,0.1-0.1,0.2-0.2,0.3c-0.2,0.3-0.4,0.6-0.7,0.8c-0.3,0.3-0.6,0.5-0.9,0.7c-1.2,0.9-3.2,1.7-4.7,1l0,0
			c-0.7-0.3-1.3-0.7-1.8-1.3c-0.1-0.3-0.1-0.7,0.1-0.9c1.6-0.1,3.3-0.4,4.8-1.1c1.5-0.7,2.9-1.7,4-2.9c0.4-0.5,0.4-1.2-0.1-1.7
			c-0.5-0.4-1.2-0.4-1.7,0.1c-0.9,1-2,1.8-3.2,2.3c-1.4,0.6-2.9,0.9-4.5,0.9h-0.2c-0.4,0-0.8-0.1-1.2-0.4c-0.4-0.2-0.6-0.5-0.9-0.9
			c-0.2-0.3-0.3-0.7-0.4-1.1c0-0.2,0-0.4,0.1-0.5c1.7,0,3.4-0.3,5-0.8c1.6-0.6,3.2-1.4,4.6-2.5c0.5-0.4,0.6-1.2,0.2-1.7
			c-0.3-0.5-1.1-0.7-1.6-0.3l0,0h-0.1c-1.2,0.9-2.5,1.6-3.9,2.1c-1.5,0.5-3.2,0.8-4.8,0.7l-0.3-0.1c-0.8-0.4-1.4-1.1-1.6-2
			c-0.2-0.6-0.2-1.3,0-1.9c1,0.7,2.1,1,3.3,1c0.2,0,0.3,0,0.4-0.1c4-1.3,7.4-4,9.4-7.7c0.3-0.4,0.3-0.9,0-1.3l-5.1-7.2
			c0.7-0.1,1.3,0,2,0.1c1.5,0.5,2.8,1.3,3.9,2.4c0.5,0.4,1.2,0.4,1.7-0.1l0,0c0.1-0.1,0.1-0.2,0.2-0.3l50-85.2
			c0.6,0.1,1.1-0.2,1.3-0.7l3.9-9c3.3,0.1,6.5,1.3,9,3.5c0.5,0.9,0.6,2,0.2,2.9c0,0.1-0.1,0.3-0.1,0.4
			C153.2,46.9,153.3,47.1,153.5,47.3z M163.9,34c-0.2,0.3-0.5,0.4-0.9,0.4c-0.9-1.4-2.1-2.6-3.4-3.5c-1.4-0.9-2.9-1.6-4.5-1.9
			c-0.6-0.1-1.3,0.3-1.4,0.9l0,0c-0.1,0.6,0.3,1.3,0.9,1.4c1.3,0.2,2.5,0.8,3.6,1.5c1.2,0.9,2.3,2,3.1,3.3l0.1,0.1
			c0.2,0.3,0.3,0.8,0.3,1.2s-0.1,0.8-0.3,1.2c-0.2,0.3-0.4,0.6-0.7,0.9c-0.1,0.1-0.3,0.2-0.5,0.2c-0.9-1.4-2-2.7-3.3-3.8
			s-2.9-2-4.5-2.6c-0.6-0.2-1.3,0.1-1.6,0.7c-0.3,0.6,0,1.3,0.6,1.5l0,0c1.4,0.5,2.7,1.3,3.9,2.3c1.2,1.1,2.3,2.3,3.1,3.7
			c0,0.1,0,0.2,0,0.3c0.1,0.9-0.3,1.8-0.9,2.4c-0.5,0.5-1,0.8-1.7,0.9c0.1-1.2-0.3-2.3-0.9-3.3c-0.1-0.1-0.2-0.2-0.3-0.3
			c-3.2-2.7-7.3-4.2-11.5-4.1c-0.5,0-0.9,0.3-1.1,0.7l-3.6,8.1c-0.4-0.5-0.7-1.1-0.9-1.8c-0.4-1.5-0.4-3.1,0-4.6
			c0.1-0.6-0.3-1.3-0.9-1.4c-0.1,0-0.2,0-0.3,0L32.2,38.7l0,0c-0.1-0.6-0.7-1.1-1.4-1L21.1,39c-0.9-1.5-1.4-3.1-1.8-4.7
			c-0.3-1.6-0.3-3.2,0-4.8c0.5-0.9,1.4-1.5,2.4-1.7l0,0c0.1,0,0.3-0.1,0.4-0.2c0.2-0.1,0.4-0.3,0.5-0.5l135.7,0.5h0.4
			c0.4,0,0.7,0.1,1.1,0.2c0.4,0.1,0.7,0.2,1.1,0.4c1.4,0.6,3.1,1.9,3.3,3.5l0,0C164.2,32.5,164.2,33.3,163.9,34z"/>
		<path class="st0" d="M90.8,126.5l0.6-1L90.8,126.5z"/>
		<path class="st0" d="M93.9,121.2l19-32.6L93.9,121.2z"/>
		<rect x="183.1" class="st0" width="3.1" height="181.1"/>
	</g>
</g>
</svg>
