<svg xmlns="http://www.w3.org/2000/svg" width="791.51" height="791.52" viewBox="0 0 791.51 791.52"><defs><style>.cls-1,.cls-3{fill:#919191;}.cls-1{fill-rule:evenodd;}.cls-2{fill:#fff;}</style></defs><g id="Layer_2" data-name="Layer 2"><g id="Iconos_Medio_Ambiente" data-name="Iconos Medio Ambiente"><g id="Latas"><path class="cls-1" d="M791.5,399.43c-2,218.57-180.85,394.1-399.41,392.07S-2,610.65,0,392.09C2,175,178.61,0,395.74,0,615.28,1,792.47,179.71,791.5,399.25Z"></path><path class="cls-2" d="M370.39,629.58a94.08,94.08,0,0,1-93.22-95V323.53a94.1,94.1,0,0,1,93.21-95h48.1a94.08,94.08,0,0,1,93.21,95h0V534.62a94.26,94.26,0,0,1-93.21,95Zm23.95-507.16a807.57,807.57,0,0,0-120.67,10v13.29h7A209.81,209.81,0,0,1,256.19,194c-9.8,9.09-9.8,9.09-9.8,17.48V621.71a49.83,49.83,0,0,0,17.49,33.75,143.45,143.45,0,0,1,21.69,24.48c4.89,8.4,17.49,8.4,23.61,8.4H478.81c5.77,0,18.89,0,23.79-8.4a150.42,150.42,0,0,1,21.51-24.48A49.13,49.13,0,0,0,543,621.71V210.91c0-8.22,0-8.22-9.79-17.49A209.62,209.62,0,0,1,508,145.33h6.64V132a809.3,809.3,0,0,0-120.32-9.62"></path><path class="cls-2" d="M533,193.6a209.87,209.87,0,0,1-25-48.27h6.64V132a809.3,809.3,0,0,0-120.32-9.62,807.57,807.57,0,0,0-120.67,10v13.29h7A209.81,209.81,0,0,1,256.19,194c-9.8,9.09-9.8,9.09-9.8,17.48V621.71a49.83,49.83,0,0,0,17.49,33.75,143.45,143.45,0,0,1,21.69,24.48c4.89,8.4,17.49,8.4,23.61,8.4H478.81c5.77,0,18.89,0,23.79-8.4a150.42,150.42,0,0,1,21.51-24.48A49.13,49.13,0,0,0,543,621.71V210.91C543,202.69,543,202.69,533,193.6Z"></path><path class="cls-2" d="M491.58,105.8l-69.95,40.75a10.15,10.15,0,0,1-13.82-3.85,10.49,10.49,0,0,1,3.67-14.16l70-41.1A10,10,0,0,1,495.08,91c.06.1.12.2.17.3a10.31,10.31,0,0,1-3.2,14.23C491.89,105.62,491.74,105.72,491.58,105.8Z"></path><path class="cls-3" d="M172.59,227.35l-3.32-17.49a1362.43,1362.43,0,0,1,225.07-26.23,1345.07,1345.07,0,0,1,227.35,26.58l-3.15,16.44a1314.13,1314.13,0,0,0-224.72-26.23A1321.43,1321.43,0,0,0,172.59,227.35Z"></path><path class="cls-3" d="M172.59,651.09l-3.32-16.44a1362.67,1362.67,0,0,1,225.07-26.58,1345.07,1345.07,0,0,1,227.35,26.58l-3.15,16.44a1314.13,1314.13,0,0,0-224.72-26.23A1322,1322,0,0,0,172.59,651.09Z"></path></g></g></g></svg>