<svg xmlns="http://www.w3.org/2000/svg" width="791.52" height="791.54" viewBox="0 0 791.52 791.54"><defs><style>.cls-1{fill:#008dd2;}.cls-1,.cls-2{fill-rule:evenodd;}.cls-2{fill:#fff;}</style></defs><g id="Layer_2" data-name="Layer 2"><g id="Iconos_Medio_Ambiente" data-name="Iconos Medio Ambiente"><g id="Papel_y_cart&#xF3;n" data-name="Papel y cart&#xF3;n"><g id="Capa_3" data-name="Capa 3"><path class="cls-1" d="M791.52,399.44C789.49,618,610.66,793.55,392.1,791.52S-2,610.66,0,392.09C2,175,178.61,0,395.75,0,615.29,1,792.48,179.72,791.52,399.26Z"></path><path class="cls-2" d="M348.71,231,248.5,190.1V667l100.21,50Z"></path><path class="cls-2" d="M560.49,152.85,359.72,220.18l-100-43.54,189.58-70Z"></path><path class="cls-2" d="M362.52,237.85l198-68.56V647.08l-198,72.23Z"></path><polygon class="cls-1" points="360.95 234.35 286.62 331.41 245.52 187.65 255.67 184.68 290.99 308.15 352.73 227.7 360.95 234.35"></polygon><path class="cls-1" d="M375.81,151.8l72.41-28.33a17.51,17.51,0,0,1,9.09,0,34.52,34.52,0,0,1,7.87,2.1l38.65,14.69a9.27,9.27,0,0,1,4.9,3.85,8.2,8.2,0,0,1,1.75,5.24,9.68,9.68,0,0,1-1.58,5.25,10,10,0,0,1-4.72,3.5l-76.77,28.15a15.91,15.91,0,0,1-8.22.88,35.92,35.92,0,0,1-8.75-2.45l-35-14.69a11.42,11.42,0,0,1-4.72-3.67A9.13,9.13,0,0,1,369,160.9a8.77,8.77,0,0,1,1.75-5.43,9.12,9.12,0,0,1,4.37-3.14Zm76.25-17.49-69.95,26.94,31.83,13.64a25.48,25.48,0,0,0,5.95,1.57,7.36,7.36,0,0,0,3.49,0l73.28-26.93-35-13.47a43.09,43.09,0,0,0-5.77-1.75,8.2,8.2,0,0,0-3.85-.7Z"></path></g></g></g></g></svg>