<svg xmlns="http://www.w3.org/2000/svg" width="791.52" height="791.54" viewBox="0 0 791.52 791.54"><defs><style>.cls-1{fill:#ffc20e;}.cls-1,.cls-2{fill-rule:evenodd;}.cls-2{fill:#fff;}</style></defs><g id="Layer_2" data-name="Layer 2"><g id="Iconos_Medio_Ambiente" data-name="Iconos Medio Ambiente"><g id="Plastico"><path class="cls-1" d="M791.52,399.44C789.49,618,610.66,793.55,392.1,791.52S-2,610.66,0,392.09C2,175,178.61,0,395.75,0,615.29,1,792.48,179.72,791.52,399.26Z"></path><path class="cls-2" d="M310.41,85h2.27c0,16.27,3.85,16.27,0,30.78a64.71,64.71,0,0,1,12.07,27.11c-4.2,0-10.15-1.4-8.75,4.72-3.67,14,10,19.42,16.44,27.11,22,26.06,52.47,71.7,42.85,128.54-.88,4.72-5.42,9.45-6.65,16.44-4.89,30.26,1.23,67.51,1.23,102.66s-2.63,75.2,0,104.93a160.74,160.74,0,0,0,6.47,23.61c6.47,33.93,0,110.18-16.44,118.05a47.91,47.91,0,0,1-35-2.45A37.06,37.06,0,0,1,281,679.43c-8.4-3.67-6.3-12.24-12.07-17.49-11.54,5.78-37.08,22.39-52.47,7.17-9.62-9.44-16.44-48.09-18.71-63.65a196,196,0,0,1-2.1-54.39c1-5.42,5.42-8.92,6.47-15.22a401.31,401.31,0,0,0,0-54.39c0-37.25-1.05-73.1-1.05-107.2a350.84,350.84,0,0,0-1-52.47c-1.57-8.57-6.64-11.89-7.69-18.89-9.62-58.06,21.68-102.48,43.37-128,6.65-7.87,19.24-13.82,14.34-28.34,0-5.07-10.32,0-10-5.94,2.28-10.84,10.32-17.49,11-25.88s-2.62-6.3-3.32-11.9c0,0,3.67-2.45,3.32-4.72a9.08,9.08,0,0,1-3.32-1c-1.75-4,7.34-5.07,3.32-10.67A545.63,545.63,0,0,0,310.41,85Z"></path><path class="cls-2" d="M598.79,365.86a58.37,58.37,0,0,0,0-8.57,549.29,549.29,0,0,0-7.69-56c0-3.67,2.1-7.35,0-8.05a105,105,0,0,0-23.44-48.44c3.33,0,2.28-5.07,1.58-8.57-1.4-6.29-13.47-21.33-21-37.77a150.66,150.66,0,0,1-10.32-26.41,111.43,111.43,0,0,1-1.22-21.51c2.27-1.4,3.15-1.93,3-4.2s-4.72-8.22-4.72-9.09a2.63,2.63,0,0,1,1.57-2.63,3.3,3.3,0,0,0,1.05-4.54c-1.05-1.93-4.54-2.45-6.64-2.8s-11.19,0-20.81,0H489.32c-1.93,0-5.6.87-6.48,2.8a3.15,3.15,0,0,0-.09,4.45l.09.09a2.62,2.62,0,0,1,1.75,2.63c0,.87-4.72,6.64-4.72,9.09s0,2.8,3,4.2a109.86,109.86,0,0,1-1.22,21.51,151.12,151.12,0,0,1-8.57,26.06,382.19,382.19,0,0,0-17.49,37.77c0,3.5-1.92,8.57,1.4,8.57A97.8,97.8,0,0,0,437,293.28a256.37,256.37,0,0,0-6.47,54.92v3.85c-4.19,27.63-5.07,72.22-1.4,74.67-4.37,1.58-2.44,8.92-1.39,16.09A895.85,895.85,0,0,1,441.4,553.17a146,146,0,0,1-10.67,59.46c-4.72,13.46-9.8,47.92,7.34,56.66a231.9,231.9,0,0,0,74.68,9.79H515a231.87,231.87,0,0,0,74.68-9.79c17.49-8.74,12.07-43.2,7.34-56.66a145.86,145.86,0,0,1-10.66-59.46A893.93,893.93,0,0,1,600,442.81c1.05-7.17,3-14.51-1.4-16.09A190.87,190.87,0,0,0,598.79,365.86Z"></path></g></g></g></svg>