<svg xmlns="http://www.w3.org/2000/svg" width="791.52" height="791.54" viewBox="0 0 791.52 791.54"><defs><style>.cls-1{fill:#00a651;}.cls-1,.cls-2{fill-rule:evenodd;}.cls-2{fill:#fff;}</style></defs><g id="Layer_2" data-name="Layer 2"><g id="Iconos_Medio_Ambiente" data-name="Iconos Medio Ambiente"><g id="Vidrio"><g id="Capa_3" data-name="Capa 3"><path class="cls-1" d="M791.52,399.44C789.49,618,610.66,793.55,392.1,791.52S-2,610.66,0,392.09C2,175,178.61,0,395.75,0,615.29,1,792.48,179.72,791.52,399.26Z"></path><path class="cls-2" d="M595.47,349.77a128,128,0,0,0-29.2-95.66c-22-25-23.26-30.78-23.26-46.35S540.38,73.1,540.56,70.3s.87-2.79,2.1-3.14H475.15a3.14,3.14,0,0,1,2.27,3.14c0,2.8-2.27,122.42-2.62,137.46s-1.75,21.34-22.91,46.52a127.83,127.83,0,0,0-29,95.49l5.07,312a38,38,0,0,0,20.11,39c5.6,13.47,109.13,13.47,121.37,0a37.77,37.77,0,0,0,19.94-39Z"></path><path class="cls-2" d="M264.24,707.76a170.74,170.74,0,0,0,55.44-8.22c12.76-6.82,8.91-33.22,5.42-43.72a119,119,0,0,1-7.87-45.64,718.3,718.3,0,0,1,10.14-85c0-5.59,2.1-11.19-1.05-12.41,4-2.8,0-71.36-6.12-74,3.5,0,2.27-7.7,1.57-13.12-1.4-9.62-10.49-32.53-18.36-57.36a288.35,288.35,0,0,1-10.84-40.22,228.11,228.11,0,0,1-1.4-32.53c2.45-2.28,3.32-3.15,3.15-6.65a98.52,98.52,0,0,0-4.9-13.64,4.9,4.9,0,0,1,1.75-4.2,6.3,6.3,0,0,0,1.05-6.82c-1.05-2.8-4.72-3.67-7-4a141,141,0,0,0-22-.7,141.4,141.4,0,0,0-21.86,1.4c-2.1,0-5.77,1.22-6.82,4a5.94,5.94,0,0,0,1.05,6.82,5.46,5.46,0,0,1,1.74,4.2,122.68,122.68,0,0,0-5.07,13.64,7.54,7.54,0,0,0,3.15,6.65,254.22,254.22,0,0,1-1.22,32.53A315.76,315.76,0,0,1,223.31,369c-7.87,24.83-17.49,47.74-18.36,57.36,0,5.42-1.92,13.12,1.57,13.12-7,2.62-10.14,71.18-6.12,74-3.32,1.22-1.92,6.82-1.05,12.41a718.32,718.32,0,0,1,10.15,85,117.87,117.87,0,0,1-8.05,45.64c-3.5,10.5-7.17,36.9,5.6,43.72a170.64,170.64,0,0,0,55.44,7.52Z"></path></g></g></g></g></svg>